<?xml version="1.0" encoding="UTF-8" standalone="no"?>
<!DOCTYPE svg PUBLIC "-//W3C//DTD SVG 1.1//EN" "http://www.w3.org/Graphics/SVG/1.1/DTD/svg11.dtd">
<svg width="100%" height="100%" viewBox="0 0 4000 4000" version="1.1" xmlns="http://www.w3.org/2000/svg" xmlns:xlink="http://www.w3.org/1999/xlink" xml:space="preserve" xmlns:serif="http://www.serif.com/" style="fill-rule:evenodd;clip-rule:evenodd;stroke-linecap:round;stroke-linejoin:round;stroke-miterlimit:1.5;">
    <g transform="matrix(1.2155,0,0,1.2155,-447.824,-333.651)">
        <g>
            <g transform="matrix(0.992738,0,0,0.89626,-34.5383,122.217)">
                <path d="M2919.5,1236.4C2919.5,1204.23 2895.92,1178.11 2866.87,1178.11L1219.15,1178.11C1190.1,1178.11 1166.52,1204.23 1166.52,1236.4L1166.52,2285.61C1166.52,2317.78 1190.1,2343.89 1219.15,2343.89L2866.87,2343.89C2895.92,2343.89 2919.5,2317.78 2919.5,2285.61L2919.5,1236.4Z" style="fill:rgb(223,74,22);"/>
            </g>
            <g transform="matrix(0.92647,0,0,0.785012,107.212,332.048)">
                <path d="M2919.5,1236.4C2919.5,1204.23 2897.37,1178.11 2870.11,1178.11L1215.91,1178.11C1188.65,1178.11 1166.52,1204.23 1166.52,1236.4L1166.52,2285.61C1166.52,2317.78 1188.65,2343.89 1215.91,2343.89L2870.11,2343.89C2897.37,2343.89 2919.5,2317.78 2919.5,2285.61L2919.5,1236.4Z" style="fill:white;"/>
            </g>
            <g transform="matrix(1.0102,0,0,0.621212,-53.7295,891.853)">
                <path d="M3085.63,2174.9L980.341,2174.9L980.341,2174.9C980.341,2225.04 992.589,2273.12 1014.39,2308.57C1036.19,2344.03 1065.76,2363.94 1096.59,2363.94L2969.38,2363.94C3000.21,2363.94 3029.78,2344.03 3051.58,2308.57C3073.38,2273.12 3085.63,2225.04 3085.63,2174.9L3085.63,2174.9Z" style="fill:rgb(223,74,22);"/>
            </g>
        </g>
        <g transform="matrix(0.58162,2.77556e-17,-1.11022e-16,0.739664,931.115,676.034)">
            <path d="M3713.69,1034.5C3713.69,991.931 3669.74,957.375 3615.61,957.375L2585.83,957.375C2531.7,957.375 2487.75,991.931 2487.75,1034.5L2487.75,2607.45C2487.75,2650.01 2531.7,2684.57 2585.83,2684.57L3615.61,2684.57C3669.74,2684.57 3713.69,2650.01 3713.69,2607.45L3713.69,1034.5Z" style="fill:rgb(223,74,22);"/>
            <clipPath id="_clip1">
                <path d="M3713.69,1034.5C3713.69,991.931 3669.74,957.375 3615.61,957.375L2585.83,957.375C2531.7,957.375 2487.75,991.931 2487.75,1034.5L2487.75,2607.45C2487.75,2650.01 2531.7,2684.57 2585.83,2684.57L3615.61,2684.57C3669.74,2684.57 3713.69,2650.01 3713.69,2607.45L3713.69,1034.5Z"/>
            </clipPath>
            <g clip-path="url(#_clip1)">
                <g transform="matrix(0.647601,0,0,1.28832,1777.66,-447.887)">
                    <path d="M2919.5,1212.75C2919.5,1193.63 2880.22,1178.11 2831.85,1178.11L1254.17,1178.11C1205.8,1178.11 1166.52,1193.63 1166.52,1212.75L1166.52,2309.25C1166.52,2328.37 1205.8,2343.89 1254.17,2343.89L2831.85,2343.89C2880.22,2343.89 2919.5,2328.37 2919.5,2309.25L2919.5,1212.75Z" style="fill:white;"/>
                </g>
            </g>
        </g>
        <g transform="matrix(1.91662,0.744621,-0.744621,1.91662,-1136.82,-1299.4)">
            <g transform="matrix(0.383163,-0.148862,0.123388,0.317595,1021.68,585.616)">
                <path d="M1974.83,1684.81L2740.53,2043.3" style="fill:none;stroke:white;stroke-width:176.63px;"/>
            </g>
            <g transform="matrix(0.401839,-0.0237446,-0.0237446,0.349946,1313.48,591.064)">
                <path d="M1720.91,790.197L2564.46,847.06" style="fill:none;stroke:rgb(223,74,22);stroke-width:70.82px;stroke-dasharray:70.82,141.64,0,0;"/>
            </g>
            <g transform="matrix(0.426362,2.36679e-17,-2.36679e-17,0.426362,2081.12,475.992)">
                <circle cx="607.501" cy="816.88" r="151.969" style="fill:rgb(223,74,22);stroke:rgb(223,74,22);stroke-width:37.07px;"/>
            </g>
            <g transform="matrix(0.424973,2.18031e-16,-2.18031e-16,0.424973,1710.57,489.049)">
                <circle cx="607.501" cy="816.88" r="151.969" style="fill:rgb(223,74,22);stroke:rgb(223,74,22);stroke-width:37.19px;"/>
            </g>
        </g>
    </g>
</svg>
